<svg width="1440" height="1225" viewBox="0 0 1440 1225" fill="none" xmlns="http://www.w3.org/2000/svg">
  <g opacity="0.12">
    <path
      d="M116.3 365.8C137.1 395 154.9 413 162.6 434.4C170.3 455.7 168.1 480.3 184.8 522.3C201.6 564.3 237.4 623.7 231.6 668.1C225.8 712.4 178.5 741.7 133.1 736.1C87.6001 730.4 44.1001 689.8 6.4001 663.4C-31.3999 636.9 -63.4999 624.7 -103.5 604.7C-143.4 584.7 -191.2 557 -195.3 523.4C-199.5 489.9 -159.9 450.5 -130.2 415.3C-100.6 380.1 -80.8999 349.1 -52.8999 323.2C-24.7999 297.4 11.6001 276.7 41.7001 286.5C71.8001 296.3 95.6001 336.6 116.3 365.8Z"
      fill="#2F80ED" />
  </g>
  <g opacity="0.12">
    <path
      d="M1423.3 -111.7C1464.4 -85.3 1498.5 -47.9 1510.4 -5.29997C1522.3 37.3 1512 85.2 1501.2 130.1C1490.3 175.1 1478.8 217.1 1455.4 254.5C1431.9 291.9 1396.4 324.5 1354.1 339.6C1311.7 354.7 1262.5 352.1 1221.4 334.3C1180.4 316.6 1147.4 283.6 1119.6 248.1C1091.8 212.6 1069.1 174.5 1053 129.3C1036.9 84.1 1027.3 31.8 1044.8 -8.69997C1062.4 -49.2 1107.2 -77.9 1151.9 -102.7C1196.6 -127.4 1241.3 -148.2 1287.7 -150.9C1334.1 -153.5 1382.2 -138.1 1423.3 -111.7Z"
      fill="#2F80ED" />
  </g>
  <g opacity="0.12">
    <path
      d="M1499.3 802.8C1520.1 832 1537.9 850 1545.6 871.4C1553.3 892.7 1551.1 917.3 1567.8 959.3C1584.6 1001.3 1620.4 1060.7 1614.6 1105.1C1608.8 1149.4 1561.5 1178.7 1516.1 1173.1C1470.6 1167.4 1427.1 1126.8 1389.4 1100.4C1351.6 1073.9 1319.5 1061.7 1279.5 1041.7C1239.6 1021.7 1191.8 994 1187.7 960.4C1183.5 926.9 1223.1 887.5 1252.8 852.3C1282.4 817.1 1302.1 786.1 1330.1 760.2C1358.2 734.4 1394.6 713.7 1424.7 723.5C1454.8 733.3 1478.6 773.6 1499.3 802.8Z"
      fill="#2F80ED" />
  </g>
</svg>
