<svg width="1177" height="874" viewBox="0 0 1177 874" fill="none" xmlns="http://www.w3.org/2000/svg">
<g clip-path="url(#clip0)">
<path d="M1083.97 212.452C950.424 26.6217 668.322 -48.7591 390.883 32.4278C244.21 75.3488 102.79 161.348 32.7055 327.869C-92.5779 625.544 170.47 720.614 342.475 750.914C425.648 765.565 503.982 790.176 575.564 823.684C704.348 883.969 932.303 937.387 1104.2 686.275C1228.79 504.269 1172.92 336.233 1083.97 212.452Z" fill="#F2F2F2"/>
<path d="M309.731 249.217C309.357 246.264 308.602 243.372 307.483 240.613C307.341 240.091 307.091 239.605 306.75 239.185C306.409 238.765 305.985 238.421 305.503 238.174C304.86 238.007 304.185 237.999 303.539 238.152L293.451 239.696C292.607 239.734 291.799 240.048 291.15 240.59C289.836 241.972 291.13 244.196 291.089 246.103C291.044 248.246 289.14 249.986 287.074 250.562C284.966 250.988 282.792 250.961 280.695 250.483L266.59 248.291C270.744 246.964 274.441 244.497 277.26 241.17C279.116 238.971 280.104 234.866 277.421 233.824C276.624 233.606 275.793 233.539 274.972 233.628C268.581 233.677 263.552 228.342 257.57 226.094C253.74 224.749 249.584 224.649 245.695 225.809C241.805 226.968 238.382 229.328 235.915 232.55L243.429 232.912C244.136 232.873 244.837 233.06 245.43 233.446C247.077 234.799 245.03 237.398 245.262 239.516C245.563 242.269 249.218 242.856 251.973 243.135C254.728 243.413 258.223 245.651 256.897 248.083C243.051 252.852 228.96 238.759 214.418 240.494C210.738 240.933 207.263 242.379 203.669 243.288C181.718 248.842 159.025 234.024 136.601 237.162C131.616 238.012 126.717 239.304 121.961 241.023C118.909 242.025 115.726 243.108 113.508 245.432C111.291 247.756 110.447 251.731 112.547 254.161C106.757 254.638 100.928 254.084 95.3317 252.524C96.8451 253.366 98.1042 254.599 98.9767 256.095C99.8492 257.59 100.303 259.293 100.29 261.025C91.2496 262.499 82.4483 265.183 74.1231 269.003C75.6769 271.587 77.4917 274.005 79.5391 276.218L68.0938 283.571C71.9605 284.545 73.9598 289.818 71.7111 293.111C75.7205 291.328 78.2053 286.713 82.4927 285.778C85.3016 285.165 88.1596 286.314 90.8242 287.393C93.4888 288.473 96.4174 289.519 99.1758 288.709C101.934 287.899 103.969 284.323 102.216 282.044C114.006 278.604 126.191 276.7 138.469 276.38C139.416 276.261 140.377 276.443 141.214 276.901C142.813 278.01 142.392 280.405 142.306 282.348C142.22 284.291 143.735 286.845 145.471 285.969C143.428 287.741 145.175 291.077 147.135 292.94C149.096 294.804 151.459 297.375 150.258 299.798C149.945 300.431 149.414 300.937 149.112 301.575C148.223 303.46 149.635 305.656 151.301 306.907C152.967 308.159 155.008 309.033 156.166 310.766C157.323 312.498 156.797 315.531 154.728 315.773L148.846 308.305C146.836 310.389 145.458 313 144.872 315.835C151.11 320.934 152.048 331.313 146.826 337.448C144.157 340.583 140.362 342.489 137.05 344.934C133.737 347.38 130.673 350.862 130.681 354.979C130.695 362.092 130.114 368.7 132.78 375.295C137.695 387.455 143.369 399.295 149.77 410.743C151.451 413.749 153.623 417.044 157.028 417.561C152.725 407.085 148.851 396.446 145.407 385.644C147.65 385.653 150.243 385.831 151.558 387.648C152.647 389.153 152.413 391.2 152.751 393.026C153.182 394.796 153.899 396.483 154.876 398.021L175.425 434.625C177.129 437.66 179.083 440.917 182.338 442.146C184.42 442.932 186.828 442.784 188.744 443.915C190.246 444.801 191.257 446.375 192.788 447.21C197.117 449.572 203.137 445.043 207.182 447.862C208.339 448.669 209.075 449.949 210.141 450.872C213.877 454.108 220.006 451.943 224.319 454.357C227.099 455.913 228.54 459.024 230.022 461.843C233.736 468.905 239.746 475.824 247.705 476.386C250.205 476.563 252.759 476.089 255.203 476.645C257.647 477.201 260.053 479.334 259.66 481.809C258.988 486.053 261.085 490.701 260.521 494.96C259.496 502.72 248.489 506.13 247.544 513.9C247.337 515.601 247.661 517.357 247.256 519.022C246.759 521.063 245.227 522.724 244.682 524.753C243.65 528.597 246.404 532.423 249.43 535.009C252.455 537.595 256.064 539.825 257.719 543.446C259.467 547.272 258.608 551.734 259.177 555.903C260.418 565.003 268.278 571.75 276.368 576.1C278.832 577.425 281.478 578.708 283.074 581.007C285.156 584.008 284.948 587.964 285.644 591.55C287.346 600.331 294.739 607.567 294.949 616.51C295.098 622.866 291.565 628.632 289.454 634.629C287.475 640.376 286.759 646.481 287.355 652.529C287.95 658.577 289.843 664.425 292.905 669.675C294.484 672.341 296.372 674.855 297.489 677.745C299.482 682.902 298.835 688.765 300.673 693.98C303.103 700.875 309.779 706.569 309.14 713.852C312.171 720.146 318.863 723.238 325.593 725.112L337.655 728.469C339.964 729.112 342.378 729.76 344.729 729.295C347.081 728.829 349.325 726.876 349.265 724.48C343.35 723.146 337.245 721.727 332.37 718.123C327.494 714.519 324.154 708.1 326.004 702.326C326.861 699.649 328.686 696.557 326.951 694.344C325.958 693.078 324.141 692.747 323.021 691.591C321.273 689.788 321.874 686.76 323.13 684.586C324.387 682.412 326.203 680.47 326.709 678.01C326.965 676.635 326.794 675.214 326.22 673.938C325.645 672.662 324.694 671.592 323.494 670.873C325.73 670.028 327.764 668.723 329.464 667.042C331.034 665.249 331.759 662.485 330.524 660.447C334.191 660.912 338.521 661.14 340.929 658.334C342.851 656.094 342.719 652.745 341.96 649.892C341.2 647.039 339.916 644.268 339.876 641.316C348.336 641.717 356.815 641.43 365.229 640.457C364.012 636.359 361.247 632.897 357.521 630.803C361.331 630.158 364.803 625.596 366.007 621.924C367.211 618.251 366.904 614.251 366.16 610.459C365.874 609.482 365.835 608.45 366.046 607.455C366.475 606.088 367.818 605.253 369.061 604.539L387.975 593.677C389.104 593.111 390.127 592.356 391 591.444C392.982 589.116 392.688 585.602 391.673 582.719C390.659 579.835 389.033 577.123 388.643 574.091C387.474 565.024 397.18 558.518 400.456 549.982C401.742 546.633 402.004 542.991 402.252 539.412C402.519 535.568 402.539 531.103 399.588 528.625C396.758 526.251 392.337 526.78 389.376 524.571C386.662 522.546 385.725 518.613 382.76 516.977C380.067 515.492 376.69 516.437 373.695 515.738C368.422 514.508 365.103 508.43 359.717 507.867C356.678 507.55 353.239 509.035 350.748 507.265C348.554 505.706 348.466 502.572 348.048 499.912C347.316 495.779 345.335 491.969 342.371 488.996C339.408 486.023 335.604 484.029 331.473 483.284C328.34 482.781 324.93 482.972 322.264 481.25C319.565 479.507 318.328 476.243 316.208 473.828C312.791 469.937 307.409 468.554 302.368 467.369L281.862 462.548C278.222 461.693 273.53 461.239 271.577 464.428C270.999 465.642 270.589 466.929 270.36 468.254C269.628 470.651 268.155 472.754 266.153 474.262C264.15 475.769 261.722 476.602 259.216 476.642C257.497 473.711 254.713 471.557 251.444 470.629C249.365 470.05 247.139 469.985 245.156 469.133C244.076 468.606 243.115 467.864 242.332 466.952C241.548 466.041 240.959 464.979 240.601 463.832C240.242 462.685 240.121 461.477 240.245 460.281C240.37 459.086 240.737 457.929 241.324 456.88C242.506 454.775 242.962 452.34 242.623 449.949C242.283 447.559 241.167 445.347 239.445 443.655C235.958 440.524 230.913 439.768 226.237 440.081C225.013 437.409 227.06 434.394 229.267 432.452C231.474 430.51 234.153 428.601 234.634 425.701C235.389 421.14 229.569 417.675 225.15 419.035C220.731 420.396 217.911 424.688 216.046 428.919C214.976 431.347 214.067 433.903 212.379 435.95C210.692 437.997 207.975 439.463 205.404 438.806C201.766 437.876 200.36 433.553 199.555 429.884C198.474 424.962 197.388 419.972 197.614 414.939C197.84 409.905 199.537 404.736 203.249 401.328C209.298 395.775 218.577 396.319 226.741 397.205C224.812 395.032 225.289 391.37 227.352 389.325C228.442 388.357 229.751 387.669 231.166 387.322C232.581 386.974 234.059 386.977 235.473 387.33C237.933 387.842 240.149 389.167 241.764 391.091C244.084 393.919 244.744 397.738 246.497 400.949C248.251 404.159 252.193 406.897 255.421 405.175C258.208 403.687 258.65 399.822 257.957 396.74C257.263 393.657 255.789 390.66 256.041 387.51C256.52 381.501 262.75 377.883 268.247 375.408C273.744 372.933 280.039 369.605 280.91 363.639C280.94 362.471 281.16 361.316 281.562 360.219C282.172 359.25 283.019 358.453 284.024 357.904C300.068 347.301 316.378 336.569 334.716 330.776C335.67 330.474 335.782 330.809 336.754 330.573C338.115 329.786 337.213 327.611 335.909 326.734C334.604 325.858 332.86 325.186 332.529 323.65C332.286 322.52 332.951 321.411 333.124 320.269C333.549 317.462 330.191 314.87 327.583 315.992C326.11 314.042 329.025 311.775 331.382 311.126C338.459 309.178 345.723 307.992 353.052 307.586C353.898 307.452 354.764 307.599 355.518 308.005C356.749 308.858 356.592 310.814 355.719 312.031C354.847 313.248 353.49 314.012 352.403 315.042C351.215 316.199 350.368 317.66 349.954 319.266C349.54 320.871 349.575 322.56 350.055 324.147C353.881 326.093 358.04 328.096 362.278 327.411C366.515 326.725 370.276 321.964 368.284 318.162C366.43 314.621 360.858 313.822 359.9 309.941C358.778 305.397 365.21 301.356 363.762 296.906C363.127 294.956 361.184 293.809 359.693 292.402C357.933 290.676 356.735 288.459 356.258 286.04C355.781 283.622 356.046 281.115 357.019 278.85C354.591 279.277 352.096 279.116 349.743 278.38C347.39 277.643 345.248 276.354 343.496 274.619C340.262 271.354 337.681 266.205 333.088 266.351C328.874 266.485 325.243 271.402 321.302 269.902C320.332 269.533 319.31 268.782 318.371 269.222C318.063 269.422 317.804 269.689 317.615 270.004C317.426 270.318 317.31 270.671 317.277 271.037C316.276 275.825 317.999 281.281 315.389 285.419C312.549 289.922 305.98 290.546 302.537 294.606C300.668 296.81 299.944 299.78 298.226 302.104C296.509 304.428 292.862 305.905 290.801 303.88C291.814 301.797 292.091 299.432 291.586 297.172C291.081 294.911 289.824 292.889 288.021 291.435C286.107 290.186 284.043 289.183 281.879 288.448C279.461 287.424 277.161 286.142 275.019 284.624C273.945 283.977 273.073 283.044 272.5 281.929C272.046 280.534 272.107 279.022 272.672 277.668C273.718 274.67 275.562 272.016 278.006 269.99C280.449 267.965 283.4 266.645 286.539 266.174C289.284 265.8 292.479 265.932 294.295 263.841C295.257 262.734 295.761 261.061 297.156 260.611C298.048 260.432 298.975 260.546 299.797 260.937L310.042 264.543C311.186 265.059 312.444 265.267 313.692 265.146C314.311 265.063 314.876 264.749 315.273 264.266C315.669 263.784 315.869 263.169 315.832 262.546C315.504 260.845 312.886 260.028 313.125 258.312C313.258 257.756 313.557 257.253 313.982 256.871C317.68 252.935 322.201 249.866 327.224 247.883C332.246 245.899 337.645 245.051 343.033 245.398C344.327 247.522 342.281 250.037 340.58 251.85C338.878 253.663 337.511 256.903 339.569 258.298C340.412 258.729 341.35 258.94 342.296 258.913C344.819 259.254 347.27 259.998 349.557 261.115C353.098 262.656 356.57 264.341 359.974 266.172C359.674 263.927 359.387 261.563 360.237 259.464C361.088 257.365 363.506 255.719 365.619 256.536C367.654 257.324 368.698 260.019 370.867 260.266C373.759 260.595 374.901 256.322 373.692 253.673C372.484 251.024 370.092 248.806 369.892 245.901C369.758 243.942 370.503 241.511 368.938 240.325C368.381 239.969 367.749 239.747 367.091 239.677L328.007 232.485C325.686 232.058 322.333 232.385 322.23 234.743C322.173 236.059 323.348 237.361 322.828 238.571C322.272 239.862 320.446 239.744 319.117 240.201C317.054 240.91 316.019 243.359 316.217 245.532C316.579 247.69 317.415 249.742 318.665 251.539C316.122 250.476 312.273 250.281 309.731 249.217Z" fill="#3F3D56"/>
<path d="M278.545 216.04C276.081 215.224 273.425 215.186 270.938 215.931C268.451 216.676 266.253 218.168 264.643 220.204C263.999 221.051 263.459 222.219 263.998 223.136C264.77 224.452 266.738 223.932 268.189 223.462C270.322 222.7 272.643 222.644 274.81 223.304C276.172 223.772 277.391 224.598 278.76 225.049C279.426 225.327 280.155 225.419 280.87 225.315C281.584 225.21 282.257 224.913 282.815 224.456C283.755 223.498 283.814 222.009 283.815 220.667C283.88 220.219 283.845 219.761 283.71 219.328C283.576 218.894 283.347 218.497 283.039 218.163C282.491 217.846 281.876 217.664 281.243 217.632C279.827 217.37 278.547 216.622 277.624 215.517" fill="#3F3D56"/>
<path d="M292.641 212.116C292.089 212.086 291.539 212.199 291.044 212.443C290.548 212.687 290.124 213.054 289.811 213.509C289.499 213.965 289.308 214.493 289.259 215.043C289.21 215.593 289.303 216.147 289.529 216.651C291.223 217.113 292.992 217.228 294.732 216.99C295.6 216.855 296.408 216.467 297.055 215.873C297.702 215.28 298.159 214.508 298.369 213.656C296.321 214.028 294.207 213.625 292.441 212.524" fill="#3F3D56"/>
<path d="M339.924 205.563C335.314 206.543 330.835 208.065 326.582 210.095C328.587 210.866 330.292 212.261 331.444 214.073C332.597 215.886 333.137 218.021 332.984 220.164C332.805 220.987 332.825 221.84 333.045 222.653C333.535 223.841 334.955 224.287 336.203 224.592C338.446 225.274 340.788 225.573 343.13 225.476C344.302 225.415 345.44 225.062 346.441 224.45C347.442 223.839 348.275 222.987 348.864 221.972C349.204 221.009 349.602 220.068 350.057 219.154C353.049 214.597 361.938 220.107 365.15 215.702C366.282 214.151 366.179 211.815 367.654 210.586C368.417 210.05 369.301 209.713 370.227 209.604C376.688 208.32 383.214 207.391 389.776 206.82C392.885 206.549 396.938 205.433 396.964 202.312C385.252 200.012 373.109 201.645 362.422 206.958C358.572 208.887 353.479 212.944 349.77 210.387C348.382 209.43 348.45 206.852 346.539 205.775C344.585 204.675 341.998 205.122 339.924 205.563Z" fill="#3F3D56"/>
<path d="M378.223 212.725L383.72 213.782C382.708 213.737 381.698 213.908 380.758 214.285C379.818 214.661 378.968 215.234 378.267 215.964C377.565 216.695 377.027 217.567 376.689 218.521C376.351 219.476 376.221 220.492 376.307 221.502C381.455 223.221 387.068 221.548 392.491 221.776C397.913 222.005 404.223 225.879 403.297 231.227C403.017 232.844 402.083 234.46 402.569 236.028C402.91 237.127 403.879 237.906 404.426 238.918C405.565 241.027 404.654 243.694 403.215 245.611C401.776 247.528 399.842 249.057 398.578 251.094C395.436 256.161 397.222 262.711 399.093 268.371C399.634 270.51 400.634 272.506 402.022 274.22C404.795 277.168 409.313 277.425 413.36 277.484C416.306 277.527 419.68 277.381 421.543 275.099C423.974 272.12 422.274 267.471 423.875 263.974C425.329 260.799 429.034 259.436 432.39 258.47C438.539 256.7 444.806 255.195 450.619 252.521C457.838 249.201 464.584 244.026 472.519 243.599C474.744 243.479 477.026 243.742 479.17 243.132C481.314 242.522 483.351 240.668 483.188 238.445C483.049 236.545 481.442 235.15 480.187 233.718C478.931 232.286 477.945 230.084 479.099 228.569L499.895 224.685C498.421 220.667 497.273 215.376 500.66 212.761C501.882 211.818 503.519 211.441 504.559 210.3C506.333 208.356 505.441 205.007 503.394 203.354C501.346 201.7 498.578 201.317 495.956 201.099C486.837 200.341 477.666 200.842 468.529 201.343C450.669 202.322 432.809 203.301 414.949 204.28C411.354 204.477 407.203 204.176 403.906 205.402C401.114 206.441 399.129 208.347 395.936 209.016C390.042 210.253 383.556 209.416 378.223 212.725Z" fill="#3F3D56"/>
<path d="M476.705 256.178C476.144 256.09 475.571 256.22 475.104 256.541C474.795 256.881 474.612 257.317 474.583 257.775C474.229 259.799 474.651 261.882 475.767 263.608C476.335 264.454 477.12 265.133 478.039 265.574C478.959 266.014 479.979 266.201 480.995 266.114C483.47 265.798 485.295 263.687 487.57 262.656C491.078 261.069 505.973 258.596 495.669 253.029C492.118 251.11 489.824 252.804 487.025 254.067C483.841 255.696 480.273 256.426 476.705 256.178V256.178Z" fill="#3F3D56"/>
<path d="M566.957 209.583C565.754 210.074 564.747 210.95 564.095 212.074C563.794 212.645 563.724 213.309 563.9 213.93C564.075 214.551 564.482 215.08 565.037 215.409C565.487 215.572 565.963 215.648 566.441 215.632L571.333 215.778C573.411 215.84 576.007 216.283 576.566 218.286C576.981 219.773 576.052 221.684 577.172 222.746C577.653 223.119 578.231 223.344 578.837 223.395C580.448 223.809 582.131 223.864 583.766 223.555C587.325 222.6 585.455 220.427 586.576 218.493C588.291 215.533 587.994 217.325 591.017 215.628C593.249 214.376 596.133 212.103 594.27 208.91C591.031 203.358 571.738 207.197 566.957 209.583Z" fill="#3F3D56"/>
<path d="M663.515 206.791L660.674 207.17C654.268 208.025 647.826 208.888 641.656 210.811C644.327 211.867 647.129 212.555 649.985 212.855C651.557 212.932 653.119 213.154 654.651 213.518C657.376 214.33 660.122 216.424 662.754 215.351C664.387 214.686 664.919 212.986 666.272 212.085C667.205 211.463 670.747 210.457 671.143 209.829C674.343 204.754 665.975 206.463 663.515 206.791Z" fill="#3F3D56"/>
<path d="M675.99 219.702C672.195 221.824 668.674 224.402 665.506 227.379C664.172 228.634 662.808 230.194 662.929 232.022C663.09 234.452 665.678 235.861 667.92 236.81L677.001 240.655C678.103 239.102 677.095 236.959 675.956 235.433C674.818 233.907 673.465 232.141 673.968 230.305C674.542 228.21 677.097 227.496 679.239 227.135C682.73 226.547 692.146 226.594 691.015 220.968C689.682 214.339 679.494 217.743 675.99 219.702Z" fill="#3F3D56"/>
<path d="M674.162 594.829C673.298 597.332 673.216 600.281 674.711 602.466C676.389 604.918 679.748 605.832 682.653 605.21C685.546 604.44 688.125 602.782 690.027 600.469C691.765 598.532 693.196 596.338 694.268 593.965C695.764 590.268 696.819 586.407 697.411 582.463L700.231 567.659C700.861 564.35 700.837 554.207 694.756 557.512C693.094 558.415 689.248 565.543 687.507 567.564C684.369 571.208 683.954 574.743 682.302 579.156C680.233 584.685 676.075 589.292 674.162 594.829Z" fill="#3F3D56"/>
<path d="M995.344 670.587C993.355 669.81 991.423 668.891 989.566 667.836C987.704 672.956 986.713 678.353 986.637 683.801L1000.25 676.096C1002.3 674.937 1004.62 673.326 1004.58 670.973C1004.6 670.683 1004.54 670.393 1004.4 670.133C1004.27 669.874 1004.07 669.655 1003.83 669.5C1003.52 669.378 1003.19 669.34 1002.87 669.388C1000.85 669.556 999.011 670.55 997.107 671.24C995.202 671.931 992.975 672.296 991.227 671.271" fill="#3F3D56"/>
<path d="M1067.17 675.161C1065.68 675.568 1064.22 676.092 1062.81 676.728C1059.68 678.318 1057.56 681.337 1054.74 683.431C1052.05 685.435 1048.81 686.535 1045.63 687.605C1044.7 688.432 1045.13 690.097 1046.14 690.823C1047.24 691.444 1048.49 691.726 1049.74 691.631C1053.04 691.704 1056.52 691.736 1059.42 690.141C1061.05 689.083 1062.57 687.872 1063.97 686.525C1067.36 683.702 1071.42 681.839 1075.44 680.04C1076.91 679.487 1078.26 678.678 1079.44 677.65C1081.97 675.16 1082.14 671.319 1078.5 670.472C1075.56 669.787 1069.98 674.254 1067.17 675.161Z" fill="#3F3D56"/>
<path d="M1098.91 654.43C1099.07 652.717 1098.84 650.989 1098.24 649.377C1097.64 647.765 1096.68 646.31 1095.43 645.124C1095.39 648.551 1095.29 652.203 1093.36 655.037C1091.99 657.057 1089.83 658.421 1088.33 660.345C1086.82 662.268 1086.16 665.318 1087.92 667.006C1089.05 667.864 1090.42 668.338 1091.84 668.356C1095.36 668.77 1099.42 669 1101.89 666.462C1103.23 665.076 1103.89 663.024 1105.53 662.005C1106.14 661.749 1106.68 661.358 1107.12 660.862C1107.8 659.785 1106.73 658.366 1105.51 657.978C1104.3 657.59 1102.97 657.773 1101.75 657.404C1100.53 657.036 1099.41 655.666 1100.04 654.558" fill="#3F3D56"/>
<path d="M1042.5 528.759C1040.66 529.208 1038.75 529.32 1036.87 529.092C1033.74 528.516 1031.3 526.159 1028.78 524.226C1022.77 519.654 1015.48 517.105 1007.93 516.942C1001.07 516.813 994.142 518.672 987.402 517.375C987.843 519.824 989.939 521.661 992.175 522.753C994.411 523.845 996.879 524.394 999.126 525.464C1002.72 527.194 1005.58 530.163 1007.17 533.827C1007.89 535.517 1008.34 537.355 1009.44 538.83C1011.68 541.845 1015.93 542.507 1019.68 542.26C1024.56 541.939 1029.67 540.533 1034.21 542.354C1037.69 543.747 1040.18 546.791 1043.08 549.158C1045.99 551.525 1050.08 553.281 1053.41 551.574C1049.95 550.452 1046.93 548.253 1044.81 545.297C1042.68 542.342 1041.56 538.784 1041.6 535.144C1044.87 535.444 1054.29 535.328 1053.78 529.771C1053.35 525.062 1045.31 528.251 1042.5 528.759Z" fill="#3F3D56"/>
<path d="M999.719 567.076C1000.3 563.891 1003.48 561.079 1002.49 557.997C1001.8 555.865 999.331 554.812 997.093 554.76C994.855 554.707 992.656 555.374 990.418 555.437C988.961 555.359 987.501 555.38 986.047 555.499C981.605 556.229 978.866 560.885 974.68 562.541C972.134 563.548 969.274 563.355 966.627 564.051C960.617 565.631 956.814 571.31 952.613 575.889C945.825 583.254 936.982 588.411 927.229 590.692C923.812 591.484 920.138 591.99 917.422 594.209C913.825 597.148 912.94 602.186 912.14 606.762C909.929 619.398 906.55 631.801 902.047 643.812L916.317 645.635C919.03 645.981 921.842 646.32 924.456 645.516C926.356 644.8 928.155 643.841 929.809 642.665C936.165 638.719 943.278 636.151 950.689 635.128C954.426 634.615 958.344 634.521 961.851 635.91C965.358 637.299 968.366 640.449 968.66 644.21C970.177 643.738 971.793 643.687 973.336 644.062C974.88 644.438 976.292 645.225 977.422 646.341C979.657 648.618 981.12 651.539 981.606 654.692C981.982 656.644 982.358 658.983 984.169 659.802C985.647 660.471 987.343 659.751 988.96 659.622C994.446 659.183 998.999 665.58 1004.39 664.478C1010.18 663.297 1011.59 654.635 1017.24 652.9C1020.48 651.904 1025.02 653.115 1026.57 650.101C1027.94 647.444 1025.21 644.378 1025.5 641.403C1025.84 637.74 1030.16 636.185 1033.49 634.622C1044.98 629.234 1050.43 613.777 1044.86 602.378C1041.57 595.623 1035.08 590.307 1033.88 582.887C1032.96 577.178 1035.21 570.521 1031.57 566.027C1029.72 563.742 1026.58 562.48 1025.48 559.752C1024.79 558.035 1025.07 556.087 1024.69 554.274C1024.32 552.46 1022.74 550.563 1020.95 551.033C1015.75 552.398 1014.09 568.458 1011.3 572.36C1007.07 578.292 998.387 574.384 999.719 567.076Z" fill="#3F3D56"/>
<path d="M903.624 534.827C901.848 534.329 899.908 533.838 898.205 534.55C896.503 535.262 895.509 537.762 896.875 539.002C907.564 538.585 918.318 538.172 928.915 539.623C941.125 541.296 953.209 545.438 965.473 544.22C958.468 542.153 951.347 540.501 944.147 539.271L932.141 536.978C928.92 536.303 925.666 535.8 922.392 535.471C915.543 534.905 910.359 536.716 903.624 534.827Z" fill="#3F3D56"/>
<path d="M914.327 497.601C913.44 497.527 912.341 497.464 911.882 498.226C911.443 498.955 911.945 499.918 911.709 500.736C911.387 501.853 909.925 502.138 908.773 501.986C907.62 501.834 906.374 501.47 905.353 502.025C904.836 502.379 904.446 502.891 904.244 503.484C904.042 504.078 904.038 504.721 904.233 505.317C904.65 506.501 905.325 507.577 906.209 508.467C907.719 510.37 909.439 512.095 911.337 513.611C915.01 516.322 919.987 517.629 922.301 521.565C922.627 522.328 923.129 523.004 923.765 523.536C924.876 524.24 926.325 523.705 927.52 523.158L931.712 521.243C932.468 520.971 933.142 520.512 933.672 519.91C934.63 518.611 934.042 516.763 933.238 515.363C932.434 513.963 931.405 512.514 931.577 510.909C931.885 508.048 935.564 506.953 937.077 504.505C938.602 502.037 937.61 498.857 937.785 495.96C937.991 492.574 940.119 488.168 936.695 485.638C933.785 483.487 931.004 485.475 928.915 487.849C924.509 492.856 922.426 498.278 914.327 497.601Z" fill="#3F3D56"/>
<path d="M939.77 446.998C941.201 449.739 944.185 451.374 945.745 454.043C947.437 456.935 947.244 460.673 949.079 463.476C950.962 466.353 954.751 467.88 955.807 471.152C956.96 474.724 954.344 479.065 956.429 482.186C956.818 482.696 957.308 483.12 957.87 483.431C958.431 483.741 959.05 483.932 959.689 483.991C960.328 484.049 960.972 483.975 961.58 483.772C962.189 483.568 962.748 483.241 963.224 482.81C964.103 481.853 964.573 480.591 964.535 479.292C964.496 477.993 963.952 476.76 963.018 475.857C961.783 474.731 960.011 474.245 958.98 472.93C958.443 472.171 958.086 471.301 957.934 470.384C957.373 467.739 957.463 464.997 958.197 462.395C958.472 461.734 958.542 461.006 958.398 460.305C957.934 458.956 956.107 458.861 954.826 458.235C951.914 456.814 951.985 452.705 952.494 449.506C952.155 451.636 944.568 448.013 943.773 446.807C942.195 444.41 943.054 439.786 942.742 437.138C939.334 438.78 938.02 443.648 939.77 446.998Z" fill="#3F3D56"/>
<path d="M863.335 489.16C861.935 487.593 859.825 485.953 857.948 486.898C856.515 487.619 856.121 489.601 856.683 491.104C857.367 492.563 858.42 493.818 859.738 494.746C863.65 497.972 867.863 500.885 871.277 504.636C877.385 511.348 880.621 520.406 887.264 526.59C888.599 528.024 890.367 528.981 892.298 529.314C894.233 529.494 896.407 528.256 896.629 526.325C896.813 524.734 895.704 523.31 894.62 522.131C892.039 519.325 889.214 516.741 886.778 513.808C885.653 512.681 884.946 511.205 884.774 509.622C884.761 508.043 886.201 506.39 887.731 506.781C885.871 506.305 884.49 503.205 881.759 502.622C879.477 502.135 878.925 503.548 876.208 502.383C871.028 500.161 866.963 493.222 863.335 489.16Z" fill="#3F3D56"/>
<path d="M985.066 336.514C983.579 336.072 982.118 335.55 980.689 334.95C976.842 333.796 971.753 336.623 972.265 340.606C972.606 343.253 975.069 345.037 976.429 347.333C978.447 350.737 977.909 355.055 976.849 358.868C976.589 360.048 976.094 361.164 975.393 362.15C974.414 363.19 973.244 364.032 971.946 364.629C966.752 367.542 962.171 371.434 958.457 376.09C958.053 376.52 957.771 377.05 957.642 377.625C957.458 378.97 958.81 379.95 959.575 381.072C961.272 383.563 960.045 386.916 960.213 389.927C960.187 390.352 960.271 390.778 960.455 391.162C960.64 391.546 960.92 391.877 961.268 392.123C962.291 392.643 963.504 391.76 964.058 390.755C965.899 387.421 964.513 382.068 967.966 380.46C968.619 380.156 969.411 380.028 969.846 379.454C970.538 378.544 969.871 377.196 970.221 376.108C970.747 374.475 972.981 374.401 974.696 374.474C977.649 374.597 980.601 374.204 983.42 373.312C984.525 373.049 985.529 372.468 986.308 371.64C987.34 370.352 987.249 368.52 987.042 366.882C986.009 358.717 983.423 350.825 979.423 343.633C982.456 344.02 985.756 344.356 988.373 342.775C989.839 341.89 991.596 339.243 990.869 337.441C989.72 334.592 987.643 336.99 985.066 336.514Z" fill="#3F3D56"/>
<path d="M596.219 381.42C596.582 383.367 596.939 385.417 596.301 387.292C595.663 389.167 593.656 390.733 591.761 390.159C590.29 389.713 589.441 388.234 588.396 387.106C582.588 380.836 569.484 384.466 565.896 376.709C564.432 373.543 565.427 369.75 564.428 366.408C563.798 364.476 562.544 362.809 560.863 361.667C559.183 360.525 557.171 359.974 555.143 360.1C553.293 360.367 551.493 360.905 549.799 361.695C538.455 366.238 526.546 369.217 514.398 370.549C512.09 370.69 509.806 371.105 507.596 371.787C502.608 373.595 499.2 378.219 496.775 382.938C494.35 387.657 492.559 392.765 489.307 396.957C485.89 401.363 481.101 404.449 476.634 407.786C474.913 408.895 473.481 410.396 472.454 412.167C471.485 414.156 471.54 416.468 471.615 418.678L472.528 445.522C472.645 448.975 472.793 452.551 474.338 455.641C476.268 459.499 480.08 462.026 482.725 465.435C485.423 468.938 486.829 473.265 486.704 477.685C486.648 479.462 486.471 481.564 487.855 482.68C488.697 483.226 489.682 483.51 490.686 483.494L526.997 486.466C533.385 486.989 540.464 487.849 544.634 492.715C546.602 495.012 548.183 498.315 551.198 498.561C552.491 498.667 553.749 498.136 555.042 498.033C558.306 497.775 561.172 500.252 562.981 502.98C565.719 507.137 566.962 512.103 566.506 517.06C566.209 520.172 565.244 523.197 565.036 526.316C564.245 538.184 574.305 548.495 574.5 560.387C574.615 567.382 571.294 573.918 568.057 580.12C573.282 588.036 569.003 598.577 571.084 607.831C573.057 616.611 580.378 623.484 582.202 632.296C583.037 636.33 583.085 641.295 586.642 643.372C588.203 644.133 589.934 644.48 591.667 644.378C602.123 644.502 612.46 642.149 621.832 637.511C626.231 635.328 630.789 632.07 631.558 627.22C632.177 623.309 630.194 618.934 632.212 615.527C634.591 611.512 640.686 611.83 644.186 608.743C649.865 603.734 645.437 594.183 647.737 586.969C649.805 580.485 656.925 577.041 660.454 571.221C661.842 568.718 662.839 566.017 663.409 563.212C665.025 556.508 666.032 549.671 666.415 542.786C666.509 538.602 666.818 534.426 667.339 530.274C671.144 506.637 694.513 490.808 702.1 468.1C702.824 465.932 703.164 463.043 701.235 461.816C700.091 461.27 698.794 461.134 697.561 461.432L680.822 463.542C678.743 463.804 676.539 464.049 674.63 463.185C672.72 462.322 671.352 459.906 672.365 458.072C675.208 452.922 669.36 446.415 666.762 441.137C659.765 426.927 651.432 413.414 641.877 400.78C641.265 400.131 640.882 399.299 640.786 398.412L645.537 398.57C643.933 392.816 641.287 386.519 635.696 384.414C632.546 383.227 629.057 383.638 625.696 383.821C616.069 384.347 605.748 382.894 596.219 381.42Z" fill="#3F3D56"/>
<path d="M625.704 251.745C628.223 254.42 631.046 257.256 634.691 257.723C641.129 258.546 645.758 251.889 648.705 246.106C648.814 247.58 649.494 248.954 650.6 249.934C651.706 250.915 653.151 251.426 654.628 251.357C656.217 251.09 657.734 250.497 659.083 249.615C671.839 242.645 686.126 238.951 700.662 238.867C700.522 237.766 700.796 236.652 701.429 235.74C702.062 234.829 703.01 234.184 704.091 233.931C707.046 233.345 709.709 235.9 711.134 238.554C712.56 241.208 713.449 244.285 715.714 246.272C717.979 248.258 722.365 248.172 723.259 245.295C724.118 242.533 721.241 240.177 718.85 238.549C716.459 236.92 713.94 233.906 715.55 231.503C727.763 228.8 740.052 226.086 752.549 225.549C754.677 225.623 756.797 225.258 758.777 224.476C760.683 223.541 762.198 221.418 761.686 219.357C758.958 219.998 756.102 219.813 753.481 218.824C750.859 217.835 748.592 216.088 746.968 213.806C764.309 212.375 782.753 211.155 798.121 219.315C799.965 223.274 790.566 226.568 793.08 230.138C793.882 231.277 795.49 231.411 796.882 231.437C807.562 231.635 818.303 231.829 828.862 230.217C832.721 229.628 836.618 228.796 840.492 229.274C846.945 230.07 852.464 234.375 858.812 235.779C861.396 236.35 864.293 236.369 866.471 234.867C868.649 233.364 869.585 229.942 867.801 227.988C873.778 222.13 883.698 223.582 891.583 226.387C899.469 229.191 906.939 233.714 915.285 234.339C921.269 234.787 927.337 233.178 933.251 234.201C936.967 234.844 940.425 236.497 944.057 237.513C950.927 239.434 958.193 239.028 965.326 239.121C983.523 239.366 1001.52 242.942 1018.43 249.673C1020.63 250.389 1022.65 251.58 1024.34 253.161C1025.91 254.846 1026.71 257.464 1025.65 259.513L1008.18 256.96C1009.83 260.2 1014.09 260.753 1017.54 261.871C1021 262.989 1024.59 266.808 1022.51 269.79C1018.76 268.597 1015.37 272.344 1013.47 275.791C1011.58 279.239 1009.27 283.367 1005.35 283.577C1001.83 283.765 997.577 280.771 995.285 283.444C998.452 287.44 1001.16 291.775 1003.37 296.371C1005.64 301.089 1007.25 307.034 1004.19 311.279C1003.71 312.037 1002.98 312.603 1002.12 312.881C999.621 313.514 997.997 310.456 996.204 308.602C993.945 306.266 990.529 305.605 987.469 304.509C984.41 303.414 981.187 301.259 980.948 298.018C980.799 296.002 981.863 294.127 982.648 292.264C983.965 289.123 984.542 285.72 984.332 282.32C984.16 279.585 983.393 276.74 981.429 274.829C979.465 272.918 976.073 272.311 973.964 274.062C972.98 274.878 972.192 276.185 970.914 276.234C968.656 276.32 966.922 272.384 965.106 273.727C965.319 275.159 965.022 276.62 964.267 277.855C958.847 282.57 950.519 280.575 943.531 282.241C940.208 283.192 937.026 284.581 934.07 286.372C932.965 286.845 932.024 287.635 931.366 288.642C930.494 290.337 931.456 292.508 932.993 293.635C934.624 294.635 936.456 295.261 938.358 295.466C946.877 297.08 955.521 299.578 962.247 305.05C968.973 310.522 973.384 319.568 971.256 327.973L954.455 311.92C955.093 318.66 955.455 325.42 955.541 332.197C955.65 333.521 955.468 334.852 955.009 336.098C953.811 338.743 950.565 339.633 947.72 340.217C946.929 340.367 946.179 340.683 945.518 341.144C944.858 341.605 944.302 342.201 943.888 342.892C943.474 343.583 943.211 344.353 943.116 345.153C943.021 345.953 943.097 346.763 943.337 347.532C944.348 350.826 946.868 353.395 949.176 355.954C951.483 358.513 953.754 361.422 954.056 364.854C954.358 368.287 951.768 372.156 948.331 371.917C945.725 371.736 943.791 369.404 942.68 367.04C941.568 364.676 940.907 362.042 939.237 360.034C934.182 353.954 922.828 356.559 918.299 350.078C917.145 351.387 916.344 352.97 915.974 354.675C915.603 356.381 915.675 358.153 916.181 359.824C918.288 358.505 921.172 359.73 922.755 361.646C924.338 363.563 925.085 366.02 926.328 368.172C928.005 371.076 930.674 373.651 930.909 376.997C930.846 378.262 930.868 379.53 930.972 380.792C931.388 382.819 933.102 384.275 934.29 385.969C937.054 389.912 936.917 395.328 935.136 399.802C933.354 404.275 930.153 408.013 926.982 411.637C921.445 417.967 915.794 424.26 909.229 429.517C907.355 431.017 905.356 432.492 904.189 434.589C903.023 436.686 902.963 439.63 904.756 441.225C903.473 441.289 901.172 441.92 899.889 441.984C899.438 436.838 899.34 431.667 899.596 426.507C894.533 424.076 889.082 430.586 889.736 436.164C890.389 441.742 894.423 446.218 897.296 451.044C899.396 454.573 900.957 458.688 900.256 462.734C899.555 466.781 895.943 470.514 891.851 470.157C885.344 469.589 882.622 460.247 876.177 459.178C875.609 459.044 875.012 459.103 874.481 459.346C873.525 459.871 873.358 461.151 873.305 462.241C873.041 467.59 872.813 473.152 874.901 478.084C877.956 485.299 885.847 491.358 884.192 499.016C875.274 494.871 870.637 484.87 868.532 475.264C866.427 465.658 866.076 455.573 862.302 446.492C859.437 450.164 853.414 447.128 850.796 443.275C848.314 439.622 846.785 435.397 844.377 431.695C841.969 427.993 838.28 424.678 833.868 424.474C829.243 424.261 825.231 427.435 821.703 430.434C818.803 432.9 815.824 435.463 814.128 438.873C811.661 443.833 812.306 449.682 812.188 455.221C812.059 461.21 810.79 467.528 806.708 471.912C802.627 476.297 795.093 477.824 790.591 473.872C788.241 471.81 787.103 468.728 786.089 465.769C781.203 451.509 777.133 436.982 773.901 422.258C773.144 425.619 770.193 429.95 767.375 427.971C766.742 427.438 766.23 426.778 765.871 426.033C760.613 417.121 750.875 411.776 741.036 408.57C731.197 405.365 720.845 403.87 711.116 400.347C705.663 398.373 700.455 395.779 695.594 392.616C694.355 394.437 693.632 396.558 693.5 398.757C693.369 400.955 693.835 403.148 694.848 405.103C697.007 408.924 701.891 411.135 706.071 409.8C708.232 409.109 710.056 407.61 712.2 406.869C714.344 406.128 717.221 406.492 718.158 408.557C719.056 410.534 717.699 412.925 718.372 414.99C719.397 418.133 724.138 418.375 725.796 421.236C727.03 423.365 726.015 426.191 724.253 427.909C722.492 429.626 720.142 430.568 717.992 431.764C711.016 435.643 706.055 442.265 699.958 447.417C693.861 452.57 685.26 456.331 677.994 453.026C679.726 444.256 669.279 437.818 667.357 429.087C666.724 426.213 667.052 423.161 666.149 420.361C664.841 416.306 661.244 413.518 658.293 410.446C654.714 406.679 651.926 402.233 650.093 397.371C648.26 392.508 647.419 387.328 647.62 382.136C647.78 378.528 648.443 374.861 647.621 371.344C646.799 367.827 643.887 364.423 640.279 364.582C632.038 364.946 621.656 365.559 617.332 358.534C615.789 356.027 615.117 352.354 617.348 350.433C618.922 349.078 621.246 349.206 623.312 349.409L641.881 351.236C646.224 351.663 650.918 352.016 654.645 349.745C658.372 347.475 659.986 341.448 656.536 338.777C654.014 336.825 649.497 336.931 648.764 333.828C648.154 331.244 651.014 328.311 649.469 326.152C648.361 324.603 645.871 325.033 644.362 326.194C642.852 327.355 641.757 329.052 640.068 329.931C637.106 331.473 633.565 330.006 630.377 329.008C627.19 328.011 622.916 327.926 621.37 330.887C619.641 334.198 622.904 338.537 621.188 341.855C618.919 346.242 611.235 343.744 608.049 347.518C604.392 351.848 610.537 358.304 609.304 363.835C607.729 364.615 605.98 364.973 604.226 364.875C602.472 364.776 600.773 364.224 599.296 363.273C597.844 362.285 596.686 360.922 595.946 359.328C595.206 357.734 594.913 355.97 595.096 354.223C595.401 351.734 596.698 349.194 595.829 346.843C595.126 344.942 593.217 343.81 591.443 342.829L573.399 332.858C571.724 335.966 573.842 339.819 576.49 342.153C579.139 344.487 582.457 346.245 584.197 349.317C585.298 351.446 585.544 353.914 584.887 356.218C584.229 358.522 582.717 360.488 580.659 361.715C580.401 361.893 580.107 362.013 579.798 362.067C579.49 362.121 579.173 362.107 578.87 362.027C578.582 361.858 578.331 361.633 578.132 361.365C577.932 361.097 577.789 360.792 577.71 360.467C574.526 352.32 569.746 344.287 562.104 340.031C554.462 335.775 543.481 336.65 538.47 343.819C537.279 345.522 536.48 347.463 535.443 349.264C529.934 358.829 518.124 363.359 507.09 363.063C506.01 363.122 504.936 362.87 503.997 362.336C502.213 361.104 502.294 358.491 502.567 356.341L503.725 347.216C503.957 345.384 504.294 343.359 505.745 342.215C507.789 340.603 510.738 341.62 513.341 341.583C515.313 341.491 517.209 340.794 518.772 339.588C520.335 338.381 521.49 336.724 522.079 334.839C522.605 332.936 522.601 330.926 522.069 329.025C521.537 327.123 520.496 325.403 519.058 324.05C517.865 322.929 516.264 321.522 516.894 320.011C517.145 319.593 517.485 319.235 517.89 318.963C518.294 318.69 518.754 318.51 519.236 318.434C523.912 317.076 528.853 316.72 533.451 315.118C538.049 313.516 542.508 310.238 543.597 305.492C543.931 304.037 544.083 302.276 545.389 301.554C546.044 301.278 546.748 301.134 547.46 301.131C549.953 300.777 552.223 299.502 553.823 297.557C555.422 295.613 556.236 293.14 556.104 290.626C558.308 289.086 561.395 290.218 563.527 291.856C565.659 293.494 567.541 295.658 570.135 296.364C574.969 297.679 579.641 293.399 584.651 293.379C586.758 293.371 588.939 294.116 590.921 293.402C592.93 292.678 594.13 290.677 595.672 289.2C597.214 287.722 599.92 286.821 601.344 288.413L600.132 279.431C602.574 280.047 605.119 280.135 607.598 279.687C610.077 279.239 612.431 278.265 614.502 276.832L598.83 271.537C598.284 271.401 597.781 271.132 597.365 270.754C596.225 269.527 597.357 267.615 598.283 266.22C600.5 262.884 600.872 257.388 597.227 255.727C594.739 254.593 591.883 255.954 589.496 257.285L578.057 263.663C577.693 265.838 580.352 267.07 582 268.534C582.997 269.42 583.702 270.587 584.024 271.882C584.345 273.176 584.268 274.538 583.802 275.787C583.335 277.037 582.502 278.116 581.411 278.883C580.32 279.65 579.022 280.07 577.689 280.086C578.442 281.065 578.965 282.202 579.22 283.41C579.475 284.619 579.454 285.87 579.16 287.07L571.464 287.624C570.6 287.797 569.703 287.622 568.968 287.136C568.144 286.405 568.256 285.124 568.065 284.04C567.605 281.423 565.042 279.589 562.427 279.119C559.812 278.648 557.137 279.251 554.547 279.846C553.448 280.242 552.24 280.214 551.16 279.768C550.54 279.366 550.07 278.772 549.82 278.077C548.684 275.324 549.746 272.088 551.569 269.734C553.392 267.38 555.889 265.659 558.13 263.7C563.491 258.996 567.43 252.887 569.502 246.062C573.739 244.287 578.125 241.875 582.362 240.1C588.893 236.793 596.218 235.373 603.513 236.002L617.861 236.276C622.109 236.357 626.472 236.461 630.4 238.08C634.328 239.7 637.779 243.203 638.05 247.443C638.132 247.923 638.091 248.416 637.93 248.875C637.769 249.335 637.494 249.746 637.13 250.07C636.576 250.373 635.947 250.515 635.316 250.479C631.355 250.618 629.666 251.605 625.704 251.745Z" fill="#3F3D56"/>
<path d="M511.337 296.712C511.897 296.181 512.301 295.507 512.503 294.762C512.705 294.017 512.697 293.23 512.482 292.489C511.118 291.963 509.634 291.828 508.197 292.099C506.76 292.37 505.428 293.037 504.35 294.025C503.5 294.885 502.767 295.853 502.171 296.905C500.286 299.981 498.618 303.655 499.711 307.094C499.8 307.469 499.963 307.822 500.19 308.133C500.418 308.444 500.705 308.707 501.035 308.905C501.525 309.102 502.053 309.185 502.579 309.147C504.656 309.145 506.731 309.017 508.793 308.765C510.059 308.61 511.53 308.252 512.019 307.075C512.662 305.526 511.105 303.774 511.559 302.16C511.858 301.438 512.31 300.79 512.885 300.261C513.17 299.995 513.389 299.666 513.525 299.3C513.661 298.934 513.709 298.542 513.667 298.154C513.484 297.396 512.324 296.967 511.907 297.625" fill="#3F3D56"/>
<path d="M522.107 282.749C520.262 282.325 518.36 282.206 516.477 282.395C516.06 282.383 515.647 282.476 515.277 282.668C514.918 282.932 514.658 283.309 514.538 283.738C514.14 285.015 514.238 286.395 514.812 287.603C515.385 288.811 516.393 289.759 517.635 290.257C518.311 290.413 518.959 290.673 519.555 291.029C521.148 292.264 520.132 294.79 520.434 296.783C520.772 299.021 522.938 300.899 522.541 303.128C522.228 304.883 520.353 306.273 520.655 308.031C520.971 309.871 523.307 310.424 525.169 310.572C526.248 310.761 527.359 310.633 528.367 310.205C529.378 309.514 530.096 308.473 530.385 307.283C531.147 305.015 531.467 302.621 531.328 300.231C531.32 299.145 531.047 298.076 530.533 297.119C529.972 296.36 529.351 295.649 528.675 294.991C525.108 290.842 528.863 284.653 522.107 282.749Z" fill="#3F3D56"/>
<path opacity="0.8" d="M991.171 607.784C991.171 607.784 717.97 450.962 600.353 480.675C600.353 480.675 351.088 507.5 322.199 566.515C322.199 566.515 242.963 318.9 214.074 310.647" stroke="#6C63FF" stroke-width="2" stroke-miterlimit="10"/>
<path opacity="0.8" d="M322.199 566.515C368.008 444.359 780.699 308.996 780.699 308.996C722.097 323.853 600.353 480.675 600.353 480.675C600.353 480.675 342.834 293.314 214.074 310.647C214.074 310.647 781.112 329.218 991.171 607.784" stroke="#6C63FF" stroke-width="2" stroke-miterlimit="10"/>
<path d="M214.074 322.615C220.683 322.615 226.042 317.256 226.042 310.647C226.042 304.037 220.683 298.679 214.074 298.679C207.464 298.679 202.105 304.037 202.105 310.647C202.105 317.256 207.464 322.615 214.074 322.615Z" fill="#6C63FF"/>
<path d="M322.198 578.483C328.808 578.483 334.167 573.125 334.167 566.515C334.167 559.905 328.808 554.547 322.198 554.547C315.589 554.547 310.23 559.905 310.23 566.515C310.23 573.125 315.589 578.483 322.198 578.483Z" fill="#6C63FF"/>
<path d="M780.698 320.964C787.308 320.964 792.667 315.606 792.667 308.996C792.667 302.386 787.308 297.028 780.698 297.028C774.089 297.028 768.73 302.386 768.73 308.996C768.73 315.606 774.089 320.964 780.698 320.964Z" fill="#6C63FF"/>
<path d="M991.171 619.752C997.781 619.752 1003.14 614.394 1003.14 607.784C1003.14 601.174 997.781 595.816 991.171 595.816C984.561 595.816 979.203 601.174 979.203 607.784C979.203 614.394 984.561 619.752 991.171 619.752Z" fill="#6C63FF"/>
<path d="M600.351 492.643C606.961 492.643 612.319 487.285 612.319 480.675C612.319 474.066 606.961 468.707 600.351 468.707C593.741 468.707 588.383 474.066 588.383 480.675C588.383 487.285 593.741 492.643 600.351 492.643Z" fill="#6C63FF"/>
</g>
<defs>
<clipPath id="clip0">
<rect width="1176.61" height="873.979" fill="white"/>
</clipPath>
</defs>
</svg>
