<svg width="47" height="39" viewBox="0 0 47 39" fill="none" xmlns="http://www.w3.org/2000/svg">
<path d="M1.02878 2.05693C0.825303 2.05693 0.626401 1.99661 0.457219 1.8836C0.288038 1.77059 0.156176 1.60997 0.0783107 1.42204C0.000445168 1.23411 -0.0199272 1.02732 0.0197682 0.827822C0.0594636 0.62832 0.157445 0.445064 0.301321 0.301231C0.445198 0.157397 0.628507 0.0594459 0.82807 0.0197623C1.02763 -0.0199213 1.23449 0.000445204 1.42247 0.0782872C1.61045 0.156129 1.77113 0.287951 1.88417 0.457081C1.99721 0.626211 2.05755 0.825054 2.05755 1.02847C2.05724 1.30113 1.94875 1.56255 1.75588 1.75535C1.56302 1.94816 1.30153 2.05662 1.02878 2.05693ZM1.02878 0.171412C0.859215 0.171412 0.693462 0.221677 0.552478 0.315851C0.411494 0.410026 0.301612 0.543878 0.236724 0.700484C0.171836 0.85709 0.154858 1.02942 0.187938 1.19567C0.221017 1.36192 0.302669 1.51463 0.422566 1.63449C0.542463 1.75435 0.695221 1.83598 0.861523 1.86905C1.02783 1.90212 1.2002 1.88515 1.35686 1.82028C1.51351 1.75541 1.6474 1.64556 1.7416 1.50462C1.8358 1.36368 1.88609 1.19797 1.88609 1.02847C1.88583 0.801238 1.79543 0.58339 1.63471 0.422716C1.47398 0.262042 1.25607 0.171664 1.02878 0.171412Z" fill="#E0E0E0"/>
<path d="M46.794 28.7361H45.1016V27.0442H46.794V28.7361ZM45.2318 28.606H46.6638V27.1744H45.2317L45.2318 28.606Z" fill="#E0E0E0"/>
<path d="M45.1363 38.7122C43.2825 38.422 41.5001 38.1753 39.7891 37.9718L40.448 36.6545C40.2193 36.5783 39.2282 37.3404 39.2282 37.3404L40.0668 33.5299C38.9233 33.6823 38.3897 37.569 38.3897 37.569L37.0937 36.2734L37.7316 37.7403C32.4959 37.1903 27.9779 37.0186 24.18 37.058L24.7439 35.9305C24.5152 35.8543 23.5242 36.6164 23.5242 36.6164L24.3628 32.8059C23.2193 32.9583 22.6856 36.845 22.6856 36.845L21.3897 35.5494L22.0654 37.103C19.4638 37.1786 16.8679 37.3876 14.2878 37.7292C14.8506 35.9767 16.8157 34.292 16.8157 34.292C15.3047 34.7619 14.5186 35.5275 14.1117 36.2372C14.0294 32.6367 14.5835 29.05 15.7484 25.6421C15.7484 25.6421 12.6991 32.501 13.1565 37.0736L13.2145 37.8859C10.5616 38.2996 9.23047 38.7122 9.23047 38.7122H45.1363Z" fill="#E0E0E0"/>
<path opacity="0.3" d="M26.3385 29.5002C32.9199 29.5002 38.2551 24.1665 38.2551 17.5871C38.2551 11.0077 32.9199 5.67407 26.3385 5.67407C19.7571 5.67407 14.4219 11.0077 14.4219 17.5871C14.4219 24.1665 19.7571 29.5002 26.3385 29.5002Z" fill="#27AE60"/>
<path d="M21.4422 2.4314L13.5078 12.0555L25.2507 25.9101L33.0793 16.709L21.4422 2.4314Z" fill="#27AE60"/>
<path opacity="0.1" d="M21.4422 2.4314L13.5078 12.0555L25.2507 25.9101L33.0793 16.709L21.4422 2.4314Z" fill="black"/>
<path d="M13.8242 12.1613C13.9997 11.8455 14.2174 11.555 14.4711 11.2978L21.7586 3.91202C21.7586 3.91202 24.2976 3.48898 24.8266 4.75809L15.5169 12.3728L13.8242 12.1613Z" fill="#F2F2F2"/>
<path d="M13.457 12.0026L24.2478 28.5012C24.2478 28.5012 25.3057 29.2415 26.3636 28.8185L37.4189 21.3624L25.676 3.59473L15.0968 11.844L13.457 12.0026Z" fill="#27AE60"/>
<path d="M13.457 12.0026L24.2478 28.5012C24.2478 28.5012 25.3057 29.2415 26.3636 28.8185L37.4189 21.3624L25.676 3.59473L15.0968 11.844L13.457 12.0026Z" fill="#27AE60"/>
<path d="M24.3572 6.1695L17.5859 11.0337L17.686 11.1729L24.4572 6.30869L24.3572 6.1695Z" fill="#3F3D56"/>
<path d="M17.4946 12.8543L17.3516 12.9489L26.2381 26.3804L26.3811 26.2859L17.4946 12.8543Z" fill="#3F3D56"/>
<path d="M34.5086 21.3981L27.3164 26.6882L27.418 26.8263L34.6102 21.5362L34.5086 21.3981Z" fill="#3F3D56"/>
<path d="M25.6407 6.40135L25.5 6.49924L34.7039 19.7192L34.8446 19.6213L25.6407 6.40135Z" fill="#3F3D56"/>
<path d="M22.7971 3.80717L14.4258 11.4878L14.4973 11.5657L22.8686 3.88505L22.7971 3.80717Z" fill="#3F3D56"/>
<path d="M23.4952 3.87301L14.7461 11.5945L14.8161 11.6738L23.5652 3.95233L23.4952 3.87301Z" fill="#3F3D56"/>
<path d="M24.0394 4.02692L14.957 11.5952L15.0248 11.6765L24.1071 4.1082L24.0394 4.02692Z" fill="#3F3D56"/>
</svg>
