<svg width="21" height="21" viewBox="0 0 21 21" fill="none" xmlns="http://www.w3.org/2000/svg">
<g clip-path="url(#clip0)">
<path d="M7.04004 8.23827C7.3335 10.3347 8.29453 12.2943 9.76369 13.8226L11.628 12.9133C11.8567 12.8017 12.1284 12.8318 12.323 12.9834C12.9487 13.4597 13.668 13.8484 14.4496 14.1176C14.7963 14.2369 14.9823 14.6183 14.8629 14.965L14.1054 17.1649C13.9861 17.5116 13.6047 17.6975 13.258 17.5782C7.33909 15.5401 4.19387 9.09147 6.23193 3.17252C6.3513 2.82583 6.73263 2.63985 7.07932 2.75922L9.28553 3.51888C9.63222 3.63825 9.81821 4.01958 9.69883 4.36627C9.42752 5.1542 9.29314 5.95403 9.28328 6.74032C9.27665 6.98482 9.14157 7.21329 8.9043 7.32901L7.04004 8.23827Z" fill="#05386B"/>
</g>
<defs>
<clipPath id="clip0">
<rect width="16" height="16" fill="white" transform="translate(5.20898) rotate(19)"/>
</clipPath>
</defs>
</svg>
