<?xml version="1.0" encoding="utf-8"?>
<!-- Svg Vector Icons : http://www.onlinewebfonts.com/icon -->
<!DOCTYPE svg PUBLIC "-//W3C//DTD SVG 1.1//EN" "http://www.w3.org/Graphics/SVG/1.1/DTD/svg11.dtd">
<svg version="1.1" xmlns="http://www.w3.org/2000/svg" xmlns:xlink="http://www.w3.org/1999/xlink" x="0px" y="0px" viewBox="0 0 1000 1000" enable-background="new 0 0 1000 1000" xml:space="preserve">
<metadata> Svg Vector Icons : http://www.onlinewebfonts.com/icon </metadata>
<g><path d="M500,10C229.4,10,10,229.4,10,500c0,270.6,219.4,490,490,490s490-219.4,490-490C990,229.4,770.6,10,500,10z M735.1,384.3L479.6,669.8c-4.9,5.5-11.2,8.8-17.7,11c-2.4,1-4.9,1-7.4,1.5c-1.8,0.2-3.5,1.1-5.3,1.1c-0.1,0-0.2-0.1-0.3-0.1c-0.7,0-1.5,0.4-2.2,0.4c-10.8,0-21.6-4.3-29.7-12.8L265.6,511.1c-15.5-16.4-14.8-42.2,1.6-57.7c16.4-15.4,42.2-14.8,57.7,1.6l122,128.9l227.3-254c15.1-16.8,40.9-18.2,57.7-3.2C748.7,341.7,750.2,367.5,735.1,384.3z"/></g>
</svg>